<?xml version="1.0" encoding="UTF-8" standalone="no"?>
<svg
   xmlns:dc="http://purl.org/dc/elements/1.1/"
   xmlns:cc="http://creativecommons.org/ns#"
   xmlns:rdf="http://www.w3.org/1999/02/22-rdf-syntax-ns#"
   xmlns:svg="http://www.w3.org/2000/svg"
   xmlns="http://www.w3.org/2000/svg"
   xmlns:sodipodi="http://sodipodi.sourceforge.net/DTD/sodipodi-0.dtd"
   xmlns:inkscape="http://www.inkscape.org/namespaces/inkscape"
   width="24pt"
   height="24pt"
   viewBox="0 0 24 24"
   version="1.1"
   id="svg2"
   inkscape:version="0.48.5 r10040"
   sodipodi:docname="xfpm-ac-adapter.svg">
  <metadata
     id="metadata21">
    <rdf:RDF>
      <cc:Work
         rdf:about="">
        <dc:format>image/svg+xml</dc:format>
        <dc:type
           rdf:resource="http://purl.org/dc/dcmitype/StillImage" />
      </cc:Work>
    </rdf:RDF>
  </metadata>
  <defs
     id="defs19" />
  <sodipodi:namedview
     pagecolor="#ffffff"
     bordercolor="#666666"
     borderopacity="1"
     objecttolerance="10"
     gridtolerance="10"
     guidetolerance="10"
     inkscape:pageopacity="0"
     inkscape:pageshadow="2"
     inkscape:window-width="777"
     inkscape:window-height="480"
     id="namedview17"
     showgrid="false"
     inkscape:zoom="7.8666667"
     inkscape:cx="15"
     inkscape:cy="15"
     inkscape:window-x="0"
     inkscape:window-y="31"
     inkscape:window-maximized="0"
     inkscape:current-layer="svg2" />
  <g
     id="surface1">
    <path
       style=" stroke:none;fill-rule:nonzero;fill:rgb(0%,0%,0%);fill-opacity:0.101961;"
       d="M 10.5 4 L 14.5 4 C 14.777344 4 15 4.222656 15 4.5 L 15 5.355469 C 15 5.628906 14.777344 5.855469 14.5 5.855469 L 10.5 5.855469 C 10.222656 5.855469 10 5.628906 10 5.355469 L 10 4.5 C 10 4.222656 10.222656 4 10.5 4 Z M 10.5 4 "
       id="path5" />
    <path
       style=" stroke:none;fill-rule:nonzero;fill:rgb(0%,0%,0%);fill-opacity:0.101961;"
       d="M 9 19 L 16 19 L 16 10.5 L 9 15.5 Z M 9 19 "
       id="path7" />
    <path
       style="fill:none;stroke-width:2;stroke-linecap:butt;stroke-linejoin:miter;stroke:rgb(0%,0%,0%);stroke-opacity:0.101961;stroke-miterlimit:4;"
       d="M -16.104911 14.429688 L -1.706474 14.429688 C -0.706474 14.429688 0.098214 15.273438 0.098214 16.3125 L 0.098214 40.546875 C 0.098214 41.585938 -0.706474 42.429688 -1.706474 42.429688 L -16.104911 42.429688 C -17.097099 42.429688 -17.901786 41.585938 -17.901786 40.546875 L -17.901786 16.3125 C -17.901786 15.273438 -17.097099 14.429688 -16.104911 14.429688 Z M -16.104911 14.429688 "
       transform="matrix(0.5,0,0,0.5,16.857143,-1)"
       id="path9" />
    <path
       style="stroke:none;fill-rule:nonzero;fill:#8cbc65;fill-opacity:1"
       d="M 8.320312 5.199219 C 7.539062 5.199219 6.878906 5.859375 6.878906 6.636719 L 6.878906 18.761719 C 6.878906 19.539062 7.539062 20.203125 8.320312 20.203125 L 15.519531 20.203125 C 16.296875 20.203125 16.902344 19.539062 16.902344 18.761719 L 16.902344 6.636719 C 16.902344 5.859375 16.296875 5.199219 15.519531 5.199219 Z M 8.320312 6.195312 L 15.519531 6.195312 C 15.734375 6.195312 15.90625 6.371094 15.90625 6.636719 L 15.90625 18.761719 C 15.90625 19.027344 15.734375 19.203125 15.519531 19.203125 L 8.320312 19.203125 C 8.101562 19.203125 7.878906 19.027344 7.878906 18.761719 L 7.878906 6.636719 C 7.878906 6.371094 8.101562 6.195312 8.320312 6.195312 Z M 8.320312 6.195312 "
       id="path11" />
    <path
       style="stroke:none;fill-rule:nonzero;fill:#8cbc65;fill-opacity:1"
       d="M 9.90625 3.714844 L 13.90625 3.714844 C 14.179688 3.714844 14.40625 3.9375 14.40625 4.214844 L 14.40625 5.070312 C 14.40625 5.34375 14.179688 5.570312 13.90625 5.570312 L 9.90625 5.570312 C 9.628906 5.570312 9.40625 5.34375 9.40625 5.070312 L 9.40625 4.214844 C 9.40625 3.9375 9.628906 3.714844 9.90625 3.714844 Z M 9.90625 3.714844 "
       id="path13" />
    <path
       style=" stroke:none;fill-rule:nonzero;fill:rgb(89.019608%,89.019608%,83.921569%);fill-opacity:1;"
       d="M 8.40625 18.714844 L 15.40625 18.714844 L 15.40625 10.214844 L 8.40625 15.214844 Z M 8.40625 18.714844 "
       id="path15" />
  </g>
</svg>
