<?xml version="1.0" encoding="UTF-8" standalone="no"?>
<svg
   xmlns:dc="http://purl.org/dc/elements/1.1/"
   xmlns:cc="http://creativecommons.org/ns#"
   xmlns:rdf="http://www.w3.org/1999/02/22-rdf-syntax-ns#"
   xmlns:svg="http://www.w3.org/2000/svg"
   xmlns="http://www.w3.org/2000/svg"
   xmlns:sodipodi="http://sodipodi.sourceforge.net/DTD/sodipodi-0.dtd"
   xmlns:inkscape="http://www.inkscape.org/namespaces/inkscape"
   width="22pt"
   height="22pt"
   viewBox="0 0 22 22"
   version="1.1"
   id="svg2"
   inkscape:version="0.48.5 r10040"
   sodipodi:docname="xfpm-ac-adapter.svg">
  <metadata
     id="metadata21">
    <rdf:RDF>
      <cc:Work
         rdf:about="">
        <dc:format>image/svg+xml</dc:format>
        <dc:type
           rdf:resource="http://purl.org/dc/dcmitype/StillImage" />
      </cc:Work>
    </rdf:RDF>
  </metadata>
  <defs
     id="defs19" />
  <sodipodi:namedview
     pagecolor="#ffffff"
     bordercolor="#666666"
     borderopacity="1"
     objecttolerance="10"
     gridtolerance="10"
     guidetolerance="10"
     inkscape:pageopacity="0"
     inkscape:pageshadow="2"
     inkscape:window-width="777"
     inkscape:window-height="480"
     id="namedview17"
     showgrid="false"
     inkscape:zoom="8.5818182"
     inkscape:cx="13.75"
     inkscape:cy="13.75"
     inkscape:window-x="0"
     inkscape:window-y="31"
     inkscape:window-maximized="0"
     inkscape:current-layer="svg2" />
  <g
     id="surface1">
    <path
       style=" stroke:none;fill-rule:nonzero;fill:rgb(0%,0%,0%);fill-opacity:0.101961;"
       d="M 9.625 3.664062 L 13.292969 3.664062 C 13.542969 3.664062 13.75 3.871094 13.75 4.125 L 13.75 4.910156 C 13.75 5.160156 13.542969 5.367188 13.292969 5.367188 L 9.625 5.367188 C 9.371094 5.367188 9.167969 5.160156 9.167969 4.910156 L 9.167969 4.125 C 9.167969 3.871094 9.371094 3.664062 9.625 3.664062 Z M 9.625 3.664062 "
       id="path5" />
    <path
       style=" stroke:none;fill-rule:nonzero;fill:rgb(0%,0%,0%);fill-opacity:0.101961;"
       d="M 8.25 17.417969 L 14.667969 17.417969 L 14.667969 9.625 L 8.25 14.207031 Z M 8.25 17.417969 "
       id="path7" />
    <path
       style="fill:none;stroke-width:2;stroke-linecap:butt;stroke-linejoin:miter;stroke:rgb(0%,0%,0%);stroke-opacity:0.101961;stroke-miterlimit:4;"
       d="M -16.106331 14.426136 L -1.702922 14.426136 C -0.714286 14.426136 0.0953731 15.269886 0.0953731 16.309659 L 0.0953731 40.548295 C 0.0953731 41.588068 -0.714286 42.431818 -1.702922 42.431818 L -16.106331 42.431818 C -17.094968 42.431818 -17.904627 41.588068 -17.904627 40.548295 L -17.904627 16.309659 C -17.904627 15.269886 -17.094968 14.426136 -16.106331 14.426136 Z M -16.106331 14.426136 "
       transform="matrix(0.458333,0,0,0.458333,15.452381,-0.916667)"
       id="path9" />
    <path
       style="stroke:none;fill-rule:nonzero;fill:#8cbc65;fill-opacity:1"
       d="M 7.625 4.765625 C 6.914062 4.765625 6.308594 5.371094 6.308594 6.085938 L 6.308594 17.199219 C 6.308594 17.910156 6.914062 18.519531 7.625 18.519531 L 14.222656 18.519531 C 14.9375 18.519531 15.492188 17.910156 15.492188 17.199219 L 15.492188 6.085938 C 15.492188 5.371094 14.9375 4.765625 14.222656 4.765625 Z M 7.625 5.679688 L 14.222656 5.679688 C 14.425781 5.679688 14.578125 5.839844 14.578125 6.085938 L 14.578125 17.199219 C 14.578125 17.441406 14.425781 17.605469 14.222656 17.605469 L 7.625 17.605469 C 7.425781 17.605469 7.222656 17.441406 7.222656 17.199219 L 7.222656 6.085938 C 7.222656 5.839844 7.425781 5.679688 7.625 5.679688 Z M 7.625 5.679688 "
       id="path11" />
    <path
       style="stroke:none;fill-rule:nonzero;fill:#8cbc65;fill-opacity:1"
       d="M 9.078125 3.402344 L 12.746094 3.402344 C 13 3.402344 13.203125 3.609375 13.203125 3.863281 L 13.203125 4.648438 C 13.203125 4.898438 13 5.105469 12.746094 5.105469 L 9.078125 5.105469 C 8.828125 5.105469 8.621094 4.898438 8.621094 4.648438 L 8.621094 3.863281 C 8.621094 3.609375 8.828125 3.402344 9.078125 3.402344 Z M 9.078125 3.402344 "
       id="path13" />
    <path
       style=" stroke:none;fill-rule:nonzero;fill:rgb(89.019608%,89.019608%,83.921569%);fill-opacity:1;"
       d="M 7.703125 17.15625 L 14.121094 17.15625 L 14.121094 9.363281 L 7.703125 13.945312 Z M 7.703125 17.15625 "
       id="path15" />
  </g>
</svg>
