<?xml version="1.0" encoding="UTF-8"?>
<svg xmlns="http://www.w3.org/2000/svg" xmlns:xlink="http://www.w3.org/1999/xlink" width="16pt" height="16pt" viewBox="0 0 16 16" version="1.1">
<g id="surface1">
<path style=" stroke:none;fill-rule:nonzero;fill:rgb(0%,0%,0%);fill-opacity:0.101961;" d="M 6.875 2.617188 L 9.496094 2.617188 C 9.671875 2.617188 9.820312 2.765625 9.820312 2.945312 L 9.820312 3.507812 C 9.820312 3.6875 9.671875 3.832031 9.496094 3.832031 L 6.875 3.832031 C 6.695312 3.832031 6.546875 3.6875 6.546875 3.507812 L 6.546875 2.945312 C 6.546875 2.765625 6.695312 2.617188 6.875 2.617188 Z M 6.875 2.617188 "/>
<path style=" stroke:none;fill-rule:nonzero;fill:rgb(0%,0%,0%);fill-opacity:0.101961;" d="M 5.894531 12.441406 L 10.476562 12.441406 L 10.476562 6.875 L 5.894531 10.148438 Z M 5.894531 12.441406 "/>
<path style="fill:none;stroke-width:2;stroke-linecap:butt;stroke-linejoin:miter;stroke:rgb(0%,0%,0%);stroke-opacity:0.101961;stroke-miterlimit:4;" d="M -16.102934 14.421034 L -1.701219 14.421034 C -0.710877 14.421034 0.100487 15.268194 0.100487 16.306263 L 0.100487 40.551735 C 0.100487 41.589804 -0.710877 42.436963 -1.701219 42.436963 L -16.102934 42.436963 C -17.093276 42.436963 -17.90464 41.589804 -17.90464 40.551735 L -17.90464 16.306263 C -17.90464 15.268194 -17.093276 14.421034 -16.102934 14.421034 Z M -16.102934 14.421034 " transform="matrix(0.327381,0,0,0.327381,11.037415,-0.654762)"/>
<path style=" stroke:none;fill-rule:nonzero;fill:rgb(97.647059%,97.647059%,97.647059%);fill-opacity:1;" d="M 5.445312 3.402344 C 4.9375 3.402344 4.507812 3.835938 4.507812 4.347656 L 4.507812 12.285156 C 4.507812 12.792969 4.9375 13.226562 5.445312 13.226562 L 10.160156 13.226562 C 10.667969 13.226562 11.066406 12.792969 11.066406 12.285156 L 11.066406 4.347656 C 11.066406 3.835938 10.667969 3.402344 10.160156 3.402344 Z M 5.445312 4.058594 L 10.160156 4.058594 C 10.304688 4.058594 10.414062 4.171875 10.414062 4.347656 L 10.414062 12.285156 C 10.414062 12.457031 10.304688 12.574219 10.160156 12.574219 L 5.445312 12.574219 C 5.304688 12.574219 5.160156 12.457031 5.160156 12.285156 L 5.160156 4.347656 C 5.160156 4.171875 5.304688 4.058594 5.445312 4.058594 Z M 5.445312 4.058594 "/>
<path style=" stroke:none;fill-rule:nonzero;fill:rgb(97.647059%,97.647059%,97.647059%);fill-opacity:1;" d="M 6.484375 2.429688 L 9.105469 2.429688 C 9.285156 2.429688 9.429688 2.578125 9.429688 2.757812 L 9.429688 3.320312 C 9.429688 3.5 9.285156 3.648438 9.105469 3.648438 L 6.484375 3.648438 C 6.304688 3.648438 6.15625 3.5 6.15625 3.320312 L 6.15625 2.757812 C 6.15625 2.578125 6.304688 2.429688 6.484375 2.429688 Z M 6.484375 2.429688 "/>
<path style=" stroke:none;fill-rule:nonzero;fill:rgb(89.019608%,89.019608%,83.921569%);fill-opacity:1;" d="M 5.503906 12.253906 L 10.085938 12.253906 L 10.085938 6.6875 L 5.503906 9.960938 Z M 5.503906 12.253906 "/>
</g>
</svg>
